solid OpenSCAD_Model
  facet normal 0.996917 0.0784615 0
    outer loop
      vertex 1 0 1
      vertex 0.987688 0.156434 0
      vertex 0.987688 0.156434 1
    endloop
  endfacet
  facet normal 0.996917 0.0784615 0
    outer loop
      vertex 0.987688 0.156434 0
      vertex 1 0 1
      vertex 1 0 0
    endloop
  endfacet
  facet normal -0.996917 0.0784615 0
    outer loop
      vertex -1 0 0
      vertex -0.987688 0.156434 1
      vertex -0.987688 0.156434 0
    endloop
  endfacet
  facet normal -0.996917 0.0784615 0
    outer loop
      vertex -0.987688 0.156434 1
      vertex -1 0 0
      vertex -1 0 1
    endloop
  endfacet
  facet normal 0.760412 0.649441 0
    outer loop
      vertex 0.809016 0.587785 1
      vertex 0.762765 0.641939 0
      vertex 0.762765 0.641939 1
    endloop
  endfacet
  facet normal 0.760412 0.649441 0
    outer loop
      vertex 0.762765 0.641939 0
      vertex 0.809016 0.587785 1
      vertex 0.809016 0.587785 0
    endloop
  endfacet
  facet normal 0.92388 0.382682 0
    outer loop
      vertex 0.951056 0.309016 1
      vertex 0.891006 0.45399 0
      vertex 0.891006 0.45399 1
    endloop
  endfacet
  facet normal 0.92388 0.382682 0
    outer loop
      vertex 0.891006 0.45399 0
      vertex 0.951056 0.309016 1
      vertex 0.951056 0.309016 0
    endloop
  endfacet
  facet normal 0.972369 0.233447 0
    outer loop
      vertex 0.987688 0.156434 1
      vertex 0.951056 0.309016 0
      vertex 0.951056 0.309016 1
    endloop
  endfacet
  facet normal 0.972369 0.233447 0
    outer loop
      vertex 0.951056 0.309016 0
      vertex 0.987688 0.156434 1
      vertex 0.987688 0.156434 0
    endloop
  endfacet
  facet normal 0.852639 0.5225 0
    outer loop
      vertex 0.891006 0.45399 1
      vertex 0.809016 0.587785 0
      vertex 0.809016 0.587785 1
    endloop
  endfacet
  facet normal 0.852639 0.5225 0
    outer loop
      vertex 0.809016 0.587785 0
      vertex 0.891006 0.45399 1
      vertex 0.891006 0.45399 0
    endloop
  endfacet
  facet normal -0.923884 0.382672 0
    outer loop
      vertex -0.951056 0.309016 0
      vertex -0.936955 0.34306 1
      vertex -0.936955 0.34306 0
    endloop
  endfacet
  facet normal -0.923884 0.382672 0
    outer loop
      vertex -0.936955 0.34306 1
      vertex -0.951056 0.309016 0
      vertex -0.951056 0.309016 1
    endloop
  endfacet
  facet normal 0.5225 -0.852639 0
    outer loop
      vertex 0.45399 -0.891006 0
      vertex 0.587785 -0.809016 1
      vertex 0.45399 -0.891006 1
    endloop
  endfacet
  facet normal 0.5225 -0.852639 0
    outer loop
      vertex 0.587785 -0.809016 1
      vertex 0.45399 -0.891006 0
      vertex 0.587785 -0.809016 0
    endloop
  endfacet
  facet normal -0.649442 -0.760411 0
    outer loop
      vertex -0.707107 -0.707107 0
      vertex -0.587785 -0.809016 1
      vertex -0.707107 -0.707107 1
    endloop
  endfacet
  facet normal -0.649442 -0.760411 -0
    outer loop
      vertex -0.587785 -0.809016 1
      vertex -0.707107 -0.707107 0
      vertex -0.587785 -0.809016 0
    endloop
  endfacet
  facet normal -0.382682 -0.92388 0
    outer loop
      vertex -0.45399 -0.891006 0
      vertex -0.309016 -0.951056 1
      vertex -0.45399 -0.891006 1
    endloop
  endfacet
  facet normal -0.382682 -0.92388 -0
    outer loop
      vertex -0.309016 -0.951056 1
      vertex -0.45399 -0.891006 0
      vertex -0.309016 -0.951056 0
    endloop
  endfacet
  facet normal -0.852639 -0.5225 0
    outer loop
      vertex -0.809016 -0.587785 0
      vertex -0.891006 -0.45399 1
      vertex -0.891006 -0.45399 0
    endloop
  endfacet
  facet normal -0.852639 -0.5225 0
    outer loop
      vertex -0.891006 -0.45399 1
      vertex -0.809016 -0.587785 0
      vertex -0.809016 -0.587785 1
    endloop
  endfacet
  facet normal 0 0 -1
    outer loop
      vertex 0.987688 -0.156434 0
      vertex 0.987688 0.156434 0
      vertex 1 0 0
    endloop
  endfacet
  facet normal 0 0 -1
    outer loop
      vertex 0.951056 -0.309016 0
      vertex 0.987688 0.156434 0
      vertex 0.987688 -0.156434 0
    endloop
  endfacet
  facet normal 0 0 -1
    outer loop
      vertex 0.951056 -0.309016 0
      vertex 0.951056 0.309016 0
      vertex 0.987688 0.156434 0
    endloop
  endfacet
  facet normal 0 0 -1
    outer loop
      vertex 0.891006 -0.45399 0
      vertex 0.951056 0.309016 0
      vertex 0.951056 -0.309016 0
    endloop
  endfacet
  facet normal 0 0 -1
    outer loop
      vertex 0.762765 0.641939 0
      vertex 0.951056 0.309016 0
      vertex 0.891006 -0.45399 0
    endloop
  endfacet
  facet normal 0 0 -1
    outer loop
      vertex 0.762765 0.641939 0
      vertex 0.891006 -0.45399 0
      vertex 0.809016 -0.587785 0
    endloop
  endfacet
  facet normal 0 0 -1
    outer loop
      vertex 0.951056 0.309016 0
      vertex 0.762765 0.641939 0
      vertex 0.891006 0.45399 0
    endloop
  endfacet
  facet normal 0 0 -1
    outer loop
      vertex 0.891006 0.45399 0
      vertex 0.762765 0.641939 0
      vertex 0.809016 0.587785 0
    endloop
  endfacet
  facet normal 0 0 -1
    outer loop
      vertex -0.936955 0.34306 0
      vertex 0.762765 0.641939 0
      vertex 0.809016 -0.587785 0
    endloop
  endfacet
  facet normal 0 0 -1
    outer loop
      vertex -0.936955 0.34306 0
      vertex 0.809016 -0.587785 0
      vertex 0.707107 -0.707107 0
    endloop
  endfacet
  facet normal -0 0 -1
    outer loop
      vertex 0.762765 0.641939 0
      vertex -0.936955 0.34306 0
      vertex 0.709299 1.45428 0
    endloop
  endfacet
  facet normal 0 0 -1
    outer loop
      vertex -0.936955 0.34306 0
      vertex 0.707107 -0.707107 0
      vertex 0.587785 -0.809016 0
    endloop
  endfacet
  facet normal -0 0 -1
    outer loop
      vertex 0.709299 1.45428 0
      vertex -0.936955 0.34306 0
      vertex 0.624987 1.58662 0
    endloop
  endfacet
  facet normal 0 0 -1
    outer loop
      vertex -0.936955 0.34306 0
      vertex 0.587785 -0.809016 0
      vertex 0.45399 -0.891006 0
    endloop
  endfacet
  facet normal 0 -0 -1
    outer loop
      vertex 0.312775 1.8553 0
      vertex 0.624987 1.58662 0
      vertex -0.936955 0.34306 0
    endloop
  endfacet
  facet normal 0 0 -1
    outer loop
      vertex 0.624987 1.58662 0
      vertex 0.312775 1.8553 0
      vertex 0.521009 1.70415 0
    endloop
  endfacet
  facet normal 0 0 -1
    outer loop
      vertex -0.936955 0.34306 0
      vertex 0.45399 -0.891006 0
      vertex 0.309016 -0.951056 0
    endloop
  endfacet
  facet normal 0 0 -1
    outer loop
      vertex 0.81662 0.845634 0
      vertex 0.811159 1.15846 0
      vertex 0.826199 1.00226 0
    endloop
  endfacet
  facet normal 0 0 -1
    outer loop
      vertex 0.762765 0.641939 0
      vertex 0.81662 0.845634 0
      vertex 0.782656 0.692435 0
    endloop
  endfacet
  facet normal -0 0 -1
    outer loop
      vertex 0.81662 0.845634 0
      vertex 0.762765 0.641939 0
      vertex 0.811159 1.15846 0
    endloop
  endfacet
  facet normal -0 0 -1
    outer loop
      vertex 0.811159 1.15846 0
      vertex 0.762765 0.641939 0
      vertex 0.77187 1.31038 0
    endloop
  endfacet
  facet normal -0 0 -1
    outer loop
      vertex 0.77187 1.31038 0
      vertex 0.762765 0.641939 0
      vertex 0.709299 1.45428 0
    endloop
  endfacet
  facet normal 0 0 -1
    outer loop
      vertex 0.312775 1.8553 0
      vertex 0.297586 2.07019 0
      vertex 0.315351 1.91428 0
    endloop
  endfacet
  facet normal 0 0 -1
    outer loop
      vertex 0.521009 1.70415 0
      vertex 0.312775 1.8553 0
      vertex 0.399928 1.80396 0
    endloop
  endfacet
  facet normal 0 0 -1
    outer loop
      vertex -1.17092 1.00944 0
      vertex 0.312775 1.8553 0
      vertex -0.936955 0.34306 0
    endloop
  endfacet
  facet normal 0 -0 -1
    outer loop
      vertex 0.255651 2.22141 0
      vertex 0.312775 1.8553 0
      vertex -1.17092 1.00944 0
    endloop
  endfacet
  facet normal 0 0 -1
    outer loop
      vertex -0.936955 0.34306 0
      vertex 0.309016 -0.951056 0
      vertex 0.156434 -0.987688 0
    endloop
  endfacet
  facet normal 0 0 -1
    outer loop
      vertex 0.312775 1.8553 0
      vertex 0.255651 2.22141 0
      vertex 0.297586 2.07019 0
    endloop
  endfacet
  facet normal 0 0 -1
    outer loop
      vertex -0.936955 0.34306 0
      vertex 0.156434 -0.987688 0
      vertex 0 -1 0
    endloop
  endfacet
  facet normal -0 0 -1
    outer loop
      vertex 0.255651 2.22141 0
      vertex -1.17092 1.00944 0
      vertex 0.190579 2.36419 0
    endloop
  endfacet
  facet normal -0 0 -1
    outer loop
      vertex 0.190579 2.36419 0
      vertex -1.17092 1.00944 0
      vertex 0.10397 2.49505 0
    endloop
  endfacet
  facet normal 0 0 -1
    outer loop
      vertex -0.936955 0.34306 0
      vertex 0 -1 0
      vertex -0.156434 -0.987688 0
    endloop
  endfacet
  facet normal -0 0 -1
    outer loop
      vertex 0.10397 2.49505 0
      vertex -1.17092 1.00944 0
      vertex -0.00204182 2.61074 0
    endloop
  endfacet
  facet normal 0 0 -1
    outer loop
      vertex -0.936955 0.34306 0
      vertex -0.156434 -0.987688 0
      vertex -0.309016 -0.951056 0
    endloop
  endfacet
  facet normal -0 0 -1
    outer loop
      vertex -0.00204182 2.61074 0
      vertex -1.17092 1.00944 0
      vertex -0.124846 2.70842 0
    endloop
  endfacet
  facet normal 0 0 -1
    outer loop
      vertex -0.936955 0.34306 0
      vertex -0.309016 -0.951056 0
      vertex -0.45399 -0.891006 0
    endloop
  endfacet
  facet normal -0 0 -1
    outer loop
      vertex -0.124846 2.70842 0
      vertex -1.17092 1.00944 0
      vertex -0.261421 2.78569 0
    endloop
  endfacet
  facet normal 0 0 -1
    outer loop
      vertex -0.936955 0.34306 0
      vertex -0.45399 -0.891006 0
      vertex -0.587785 -0.809016 0
    endloop
  endfacet
  facet normal 0 0 -1
    outer loop
      vertex -0.936955 0.34306 0
      vertex -0.587785 -0.809016 0
      vertex -0.707107 -0.707107 0
    endloop
  endfacet
  facet normal -0 0 -1
    outer loop
      vertex -0.261421 2.78569 0
      vertex -1.17092 1.00944 0
      vertex -0.408402 2.84065 0
    endloop
  endfacet
  facet normal 0 0 -1
    outer loop
      vertex -0.936955 0.34306 0
      vertex -0.707107 -0.707107 0
      vertex -0.809016 -0.587785 0
    endloop
  endfacet
  facet normal -0 0 -1
    outer loop
      vertex -0.408402 2.84065 0
      vertex -1.17092 1.00944 0
      vertex -0.56217 2.87193 0
    endloop
  endfacet
  facet normal 0 0 -1
    outer loop
      vertex -0.936955 0.34306 0
      vertex -0.809016 -0.587785 0
      vertex -0.891006 -0.45399 0
    endloop
  endfacet
  facet normal -0 0 -1
    outer loop
      vertex -0.56217 2.87193 0
      vertex -1.17092 1.00944 0
      vertex -0.71894 2.87878 0
    endloop
  endfacet
  facet normal 0 0 -1
    outer loop
      vertex -1.05659 0.515336 0
      vertex -0.936955 0.34306 0
      vertex -0.972283 0.382992 0
    endloop
  endfacet
  facet normal 0 0 -1
    outer loop
      vertex -0.71894 2.87878 0
      vertex -1.17092 1.00944 0
      vertex -0.874848 2.86101 0
    endloop
  endfacet
  facet normal 0 0 -1
    outer loop
      vertex -0.936955 0.34306 0
      vertex -1.05659 0.515336 0
      vertex -1.17092 1.00944 0
    endloop
  endfacet
  facet normal 0 0 -1
    outer loop
      vertex -1.17092 1.00944 0
      vertex -1.05659 0.515336 0
      vertex -1.11917 0.659239 0
    endloop
  endfacet
  facet normal 0 0 -1
    outer loop
      vertex -1.17092 1.00944 0
      vertex -1.11917 0.659239 0
      vertex -1.15846 0.811159 0
    endloop
  endfacet
  facet normal 0 0 -1
    outer loop
      vertex -0.874848 2.86101 0
      vertex -1.17092 1.00944 0
      vertex -1.02606 2.81908 0
    endloop
  endfacet
  facet normal 0 0 -1
    outer loop
      vertex -1.02606 2.81908 0
      vertex -1.17092 1.00944 0
      vertex -1.16885 2.754 0
    endloop
  endfacet
  facet normal 0 -0 -1
    outer loop
      vertex -1.17092 1.00944 0
      vertex -1.15846 0.811159 0
      vertex -1.1735 0.967355 0
    endloop
  endfacet
  facet normal 0 0 -1
    outer loop
      vertex -0.951056 -0.309016 0
      vertex -0.936955 0.34306 0
      vertex -0.891006 -0.45399 0
    endloop
  endfacet
  facet normal 0 0 -1
    outer loop
      vertex -0.987688 -0.156434 0
      vertex -0.936955 0.34306 0
      vertex -0.951056 -0.309016 0
    endloop
  endfacet
  facet normal 0 0 -1
    outer loop
      vertex -0.987688 0.156434 0
      vertex -0.936955 0.34306 0
      vertex -0.987688 -0.156434 0
    endloop
  endfacet
  facet normal 0 0 -1
    outer loop
      vertex -0.936955 0.34306 0
      vertex -0.987688 0.156434 0
      vertex -0.951056 0.309016 0
    endloop
  endfacet
  facet normal 0 -0 -1
    outer loop
      vertex -0.987688 0.156434 0
      vertex -0.987688 -0.156434 0
      vertex -1 0 0
    endloop
  endfacet
  facet normal 0 0 -1
    outer loop
      vertex -1.36604 1.14803 0
      vertex -1.17092 1.00944 0
      vertex -1.24323 1.05035 0
    endloop
  endfacet
  facet normal 0 0 -1
    outer loop
      vertex -1.17092 1.00944 0
      vertex -1.2997 2.6674 0
      vertex -1.16885 2.754 0
    endloop
  endfacet
  facet normal 0 0 -1
    outer loop
      vertex -1.47205 1.26372 0
      vertex -1.17092 1.00944 0
      vertex -1.36604 1.14803 0
    endloop
  endfacet
  facet normal 0 0 -1
    outer loop
      vertex -1.17092 1.00944 0
      vertex -1.41539 2.56138 0
      vertex -1.2997 2.6674 0
    endloop
  endfacet
  facet normal 0 0 -1
    outer loop
      vertex -1.17092 1.00944 0
      vertex -1.47205 1.26372 0
      vertex -1.41539 2.56138 0
    endloop
  endfacet
  facet normal 0 0 -1
    outer loop
      vertex -1.47205 1.26372 0
      vertex -1.51308 2.43858 0
      vertex -1.41539 2.56138 0
    endloop
  endfacet
  facet normal 0 0 -1
    outer loop
      vertex -1.55866 1.39458 0
      vertex -1.51308 2.43858 0
      vertex -1.47205 1.26372 0
    endloop
  endfacet
  facet normal 0 0 -1
    outer loop
      vertex -1.55866 1.39458 0
      vertex -1.59035 2.302 0
      vertex -1.51308 2.43858 0
    endloop
  endfacet
  facet normal 0 0 -1
    outer loop
      vertex -1.62373 1.53736 0
      vertex -1.59035 2.302 0
      vertex -1.55866 1.39458 0
    endloop
  endfacet
  facet normal 0 0 -1
    outer loop
      vertex -1.62373 1.53736 0
      vertex -1.6453 2.15502 0
      vertex -1.59035 2.302 0
    endloop
  endfacet
  facet normal 0 0 -1
    outer loop
      vertex -1.66567 1.68858 0
      vertex -1.6453 2.15502 0
      vertex -1.62373 1.53736 0
    endloop
  endfacet
  facet normal 0 0 -1
    outer loop
      vertex -1.66567 1.68858 0
      vertex -1.67659 2.00125 0
      vertex -1.6453 2.15502 0
    endloop
  endfacet
  facet normal 0 -0 -1
    outer loop
      vertex -1.67659 2.00125 0
      vertex -1.66567 1.68858 0
      vertex -1.68343 1.84449 0
    endloop
  endfacet
  facet normal -0.972369 0.233447 0
    outer loop
      vertex -0.987688 0.156434 0
      vertex -0.951056 0.309016 1
      vertex -0.951056 0.309016 0
    endloop
  endfacet
  facet normal -0.972369 0.233447 0
    outer loop
      vertex -0.951056 0.309016 1
      vertex -0.987688 0.156434 0
      vertex -0.987688 0.156434 1
    endloop
  endfacet
  facet normal 0 0 1
    outer loop
      vertex 0.811159 1.15846 1
      vertex 0.81662 0.845634 1
      vertex 0.826199 1.00226 1
    endloop
  endfacet
  facet normal 0 0 1
    outer loop
      vertex 0.762765 0.641939 1
      vertex 0.81662 0.845634 1
      vertex 0.811159 1.15846 1
    endloop
  endfacet
  facet normal 0 0 1
    outer loop
      vertex 0.762765 0.641939 1
      vertex 0.811159 1.15846 1
      vertex 0.77187 1.31038 1
    endloop
  endfacet
  facet normal 0 0 1
    outer loop
      vertex 0.81662 0.845634 1
      vertex 0.762765 0.641939 1
      vertex 0.782656 0.692435 1
    endloop
  endfacet
  facet normal 0 -0 1
    outer loop
      vertex 0.762765 0.641939 1
      vertex 0.77187 1.31038 1
      vertex 0.709299 1.45428 1
    endloop
  endfacet
  facet normal 0 0 1
    outer loop
      vertex 0.987688 0.156434 1
      vertex 0.987688 -0.156434 1
      vertex 1 0 1
    endloop
  endfacet
  facet normal 0 0 1
    outer loop
      vertex 0.951056 0.309016 1
      vertex 0.987688 -0.156434 1
      vertex 0.987688 0.156434 1
    endloop
  endfacet
  facet normal 0 0 1
    outer loop
      vertex 0.951056 0.309016 1
      vertex 0.951056 -0.309016 1
      vertex 0.987688 -0.156434 1
    endloop
  endfacet
  facet normal 0 0 1
    outer loop
      vertex 0.762765 0.641939 1
      vertex 0.951056 0.309016 1
      vertex 0.891006 0.45399 1
    endloop
  endfacet
  facet normal 0 0 1
    outer loop
      vertex 0.951056 0.309016 1
      vertex 0.762765 0.641939 1
      vertex 0.951056 -0.309016 1
    endloop
  endfacet
  facet normal 0 0 1
    outer loop
      vertex 0.762765 0.641939 1
      vertex 0.891006 0.45399 1
      vertex 0.809016 0.587785 1
    endloop
  endfacet
  facet normal 0 0 1
    outer loop
      vertex 0.951056 -0.309016 1
      vertex 0.762765 0.641939 1
      vertex 0.891006 -0.45399 1
    endloop
  endfacet
  facet normal 0 0 1
    outer loop
      vertex 0.891006 -0.45399 1
      vertex 0.762765 0.641939 1
      vertex 0.809016 -0.587785 1
    endloop
  endfacet
  facet normal 0 0 1
    outer loop
      vertex -0.936955 0.34306 1
      vertex 0.762765 0.641939 1
      vertex 0.709299 1.45428 1
    endloop
  endfacet
  facet normal 0 0 1
    outer loop
      vertex 0.762765 0.641939 1
      vertex -0.936955 0.34306 1
      vertex 0.809016 -0.587785 1
    endloop
  endfacet
  facet normal 0 0 1
    outer loop
      vertex -0.936955 0.34306 1
      vertex 0.709299 1.45428 1
      vertex 0.624987 1.58662 1
    endloop
  endfacet
  facet normal 0 0 1
    outer loop
      vertex 0.809016 -0.587785 1
      vertex -0.936955 0.34306 1
      vertex 0.707107 -0.707107 1
    endloop
  endfacet
  facet normal 0 0 1
    outer loop
      vertex 0.312775 1.8553 1
      vertex 0.624987 1.58662 1
      vertex 0.521009 1.70415 1
    endloop
  endfacet
  facet normal 0 0 1
    outer loop
      vertex 0.707107 -0.707107 1
      vertex -0.936955 0.34306 1
      vertex 0.587785 -0.809016 1
    endloop
  endfacet
  facet normal 0 0 1
    outer loop
      vertex 0.312775 1.8553 1
      vertex 0.521009 1.70415 1
      vertex 0.399928 1.80396 1
    endloop
  endfacet
  facet normal 0 0 1
    outer loop
      vertex 0.624987 1.58662 1
      vertex 0.312775 1.8553 1
      vertex -0.936955 0.34306 1
    endloop
  endfacet
  facet normal 0 0 1
    outer loop
      vertex 0.587785 -0.809016 1
      vertex -0.936955 0.34306 1
      vertex 0.45399 -0.891006 1
    endloop
  endfacet
  facet normal -0 0 1
    outer loop
      vertex -1.2997 2.6674 1
      vertex -1.17092 1.00944 1
      vertex -1.16885 2.754 1
    endloop
  endfacet
  facet normal -0 0 1
    outer loop
      vertex -1.41539 2.56138 1
      vertex -1.17092 1.00944 1
      vertex -1.2997 2.6674 1
    endloop
  endfacet
  facet normal 0 0 1
    outer loop
      vertex -1.17092 1.00944 1
      vertex -1.36604 1.14803 1
      vertex -1.24323 1.05035 1
    endloop
  endfacet
  facet normal -0 0 1
    outer loop
      vertex -1.47205 1.26372 1
      vertex -1.17092 1.00944 1
      vertex -1.41539 2.56138 1
    endloop
  endfacet
  facet normal 0 0 1
    outer loop
      vertex -1.17092 1.00944 1
      vertex -1.47205 1.26372 1
      vertex -1.36604 1.14803 1
    endloop
  endfacet
  facet normal -0 0 1
    outer loop
      vertex -1.51308 2.43858 1
      vertex -1.47205 1.26372 1
      vertex -1.41539 2.56138 1
    endloop
  endfacet
  facet normal 0 0 1
    outer loop
      vertex -1.51308 2.43858 1
      vertex -1.55866 1.39458 1
      vertex -1.47205 1.26372 1
    endloop
  endfacet
  facet normal -0 0 1
    outer loop
      vertex -1.59035 2.302 1
      vertex -1.55866 1.39458 1
      vertex -1.51308 2.43858 1
    endloop
  endfacet
  facet normal 0 0 1
    outer loop
      vertex -1.59035 2.302 1
      vertex -1.62373 1.53736 1
      vertex -1.55866 1.39458 1
    endloop
  endfacet
  facet normal -0 0 1
    outer loop
      vertex -1.6453 2.15502 1
      vertex -1.62373 1.53736 1
      vertex -1.59035 2.302 1
    endloop
  endfacet
  facet normal 0 0 1
    outer loop
      vertex -1.6453 2.15502 1
      vertex -1.66567 1.68858 1
      vertex -1.62373 1.53736 1
    endloop
  endfacet
  facet normal -0 0 1
    outer loop
      vertex -1.67659 2.00125 1
      vertex -1.66567 1.68858 1
      vertex -1.6453 2.15502 1
    endloop
  endfacet
  facet normal 0 0 1
    outer loop
      vertex -1.66567 1.68858 1
      vertex -1.67659 2.00125 1
      vertex -1.68343 1.84449 1
    endloop
  endfacet
  facet normal 0 0 1
    outer loop
      vertex 0.297586 2.07019 1
      vertex 0.312775 1.8553 1
      vertex 0.315351 1.91428 1
    endloop
  endfacet
  facet normal 0 0 1
    outer loop
      vertex 0.255651 2.22141 1
      vertex 0.312775 1.8553 1
      vertex 0.297586 2.07019 1
    endloop
  endfacet
  facet normal 0 0 1
    outer loop
      vertex 0.312775 1.8553 1
      vertex 0.255651 2.22141 1
      vertex -1.17092 1.00944 1
    endloop
  endfacet
  facet normal 0 0 1
    outer loop
      vertex -1.17092 1.00944 1
      vertex 0.255651 2.22141 1
      vertex 0.190579 2.36419 1
    endloop
  endfacet
  facet normal 0 0 1
    outer loop
      vertex 0.45399 -0.891006 1
      vertex -0.936955 0.34306 1
      vertex 0.309016 -0.951056 1
    endloop
  endfacet
  facet normal 0 0 1
    outer loop
      vertex -1.17092 1.00944 1
      vertex 0.190579 2.36419 1
      vertex 0.10397 2.49505 1
    endloop
  endfacet
  facet normal 0 0 1
    outer loop
      vertex 0.309016 -0.951056 1
      vertex -0.936955 0.34306 1
      vertex 0.156434 -0.987688 1
    endloop
  endfacet
  facet normal 0 0 1
    outer loop
      vertex -1.17092 1.00944 1
      vertex 0.10397 2.49505 1
      vertex -0.00204182 2.61074 1
    endloop
  endfacet
  facet normal 0 0 1
    outer loop
      vertex -1.17092 1.00944 1
      vertex -0.00204182 2.61074 1
      vertex -0.124846 2.70842 1
    endloop
  endfacet
  facet normal 0 0 1
    outer loop
      vertex 0.156434 -0.987688 1
      vertex -0.936955 0.34306 1
      vertex 0 -1 1
    endloop
  endfacet
  facet normal 0 0 1
    outer loop
      vertex -1.17092 1.00944 1
      vertex -0.124846 2.70842 1
      vertex -0.261421 2.78569 1
    endloop
  endfacet
  facet normal 0 0 1
    outer loop
      vertex 0 -1 1
      vertex -0.936955 0.34306 1
      vertex -0.156434 -0.987688 1
    endloop
  endfacet
  facet normal 0 0 1
    outer loop
      vertex -1.17092 1.00944 1
      vertex -0.261421 2.78569 1
      vertex -0.408402 2.84065 1
    endloop
  endfacet
  facet normal 0 0 1
    outer loop
      vertex -0.156434 -0.987688 1
      vertex -0.936955 0.34306 1
      vertex -0.309016 -0.951056 1
    endloop
  endfacet
  facet normal 0 0 1
    outer loop
      vertex -1.17092 1.00944 1
      vertex -0.408402 2.84065 1
      vertex -0.56217 2.87193 1
    endloop
  endfacet
  facet normal 0 0 1
    outer loop
      vertex -0.309016 -0.951056 1
      vertex -0.936955 0.34306 1
      vertex -0.45399 -0.891006 1
    endloop
  endfacet
  facet normal 0 0 1
    outer loop
      vertex -0.45399 -0.891006 1
      vertex -0.936955 0.34306 1
      vertex -0.587785 -0.809016 1
    endloop
  endfacet
  facet normal 0 0 1
    outer loop
      vertex -1.17092 1.00944 1
      vertex -0.56217 2.87193 1
      vertex -0.71894 2.87878 1
    endloop
  endfacet
  facet normal 0 0 1
    outer loop
      vertex -0.587785 -0.809016 1
      vertex -0.936955 0.34306 1
      vertex -0.707107 -0.707107 1
    endloop
  endfacet
  facet normal 0 0 1
    outer loop
      vertex -1.17092 1.00944 1
      vertex -0.71894 2.87878 1
      vertex -0.874848 2.86101 1
    endloop
  endfacet
  facet normal 0 0 1
    outer loop
      vertex -0.707107 -0.707107 1
      vertex -0.936955 0.34306 1
      vertex -0.809016 -0.587785 1
    endloop
  endfacet
  facet normal 0 0 1
    outer loop
      vertex -0.809016 -0.587785 1
      vertex -0.936955 0.34306 1
      vertex -0.891006 -0.45399 1
    endloop
  endfacet
  facet normal 0 0 1
    outer loop
      vertex 0.312775 1.8553 1
      vertex -1.17092 1.00944 1
      vertex -0.936955 0.34306 1
    endloop
  endfacet
  facet normal 0 0 1
    outer loop
      vertex -1.17092 1.00944 1
      vertex -0.874848 2.86101 1
      vertex -1.02606 2.81908 1
    endloop
  endfacet
  facet normal -0 -0 1
    outer loop
      vertex -1.05659 0.515336 1
      vertex -0.936955 0.34306 1
      vertex -1.17092 1.00944 1
    endloop
  endfacet
  facet normal 0 0 1
    outer loop
      vertex -0.936955 0.34306 1
      vertex -1.05659 0.515336 1
      vertex -0.972283 0.382992 1
    endloop
  endfacet
  facet normal 0 0 1
    outer loop
      vertex -1.05659 0.515336 1
      vertex -1.17092 1.00944 1
      vertex -1.11917 0.659239 1
    endloop
  endfacet
  facet normal 0 0 1
    outer loop
      vertex -1.17092 1.00944 1
      vertex -1.02606 2.81908 1
      vertex -1.16885 2.754 1
    endloop
  endfacet
  facet normal 0 0 1
    outer loop
      vertex -1.11917 0.659239 1
      vertex -1.17092 1.00944 1
      vertex -1.15846 0.811159 1
    endloop
  endfacet
  facet normal 0 0 1
    outer loop
      vertex -1.15846 0.811159 1
      vertex -1.17092 1.00944 1
      vertex -1.1735 0.967355 1
    endloop
  endfacet
  facet normal 0 0 1
    outer loop
      vertex -0.987688 0.156434 1
      vertex -0.936955 0.34306 1
      vertex -0.951056 0.309016 1
    endloop
  endfacet
  facet normal 0 0 1
    outer loop
      vertex -0.936955 0.34306 1
      vertex -0.951056 -0.309016 1
      vertex -0.891006 -0.45399 1
    endloop
  endfacet
  facet normal 0 0 1
    outer loop
      vertex -0.936955 0.34306 1
      vertex -0.987688 0.156434 1
      vertex -0.951056 -0.309016 1
    endloop
  endfacet
  facet normal 0 0 1
    outer loop
      vertex -0.987688 0.156434 1
      vertex -0.987688 -0.156434 1
      vertex -0.951056 -0.309016 1
    endloop
  endfacet
  facet normal 0 -0 1
    outer loop
      vertex -0.987688 -0.156434 1
      vertex -0.987688 0.156434 1
      vertex -1 0 1
    endloop
  endfacet
  facet normal 0.0784615 -0.996917 0
    outer loop
      vertex 0 -1 0
      vertex 0.156434 -0.987688 1
      vertex 0 -1 1
    endloop
  endfacet
  facet normal 0.0784615 -0.996917 0
    outer loop
      vertex 0.156434 -0.987688 1
      vertex 0 -1 0
      vertex 0.156434 -0.987688 0
    endloop
  endfacet
  facet normal 0.382682 -0.92388 0
    outer loop
      vertex 0.309016 -0.951056 0
      vertex 0.45399 -0.891006 1
      vertex 0.309016 -0.951056 1
    endloop
  endfacet
  facet normal 0.382682 -0.92388 0
    outer loop
      vertex 0.45399 -0.891006 1
      vertex 0.309016 -0.951056 0
      vertex 0.45399 -0.891006 0
    endloop
  endfacet
  facet normal 0.649442 -0.760411 0
    outer loop
      vertex 0.587785 -0.809016 0
      vertex 0.707107 -0.707107 1
      vertex 0.587785 -0.809016 1
    endloop
  endfacet
  facet normal 0.649442 -0.760411 0
    outer loop
      vertex 0.707107 -0.707107 1
      vertex 0.587785 -0.809016 0
      vertex 0.707107 -0.707107 0
    endloop
  endfacet
  facet normal 0.92388 -0.382682 0
    outer loop
      vertex 0.891006 -0.45399 1
      vertex 0.951056 -0.309016 0
      vertex 0.951056 -0.309016 1
    endloop
  endfacet
  facet normal 0.92388 -0.382682 0
    outer loop
      vertex 0.951056 -0.309016 0
      vertex 0.891006 -0.45399 1
      vertex 0.891006 -0.45399 0
    endloop
  endfacet
  facet normal 0.760411 -0.649442 0
    outer loop
      vertex 0.707107 -0.707107 1
      vertex 0.809016 -0.587785 0
      vertex 0.809016 -0.587785 1
    endloop
  endfacet
  facet normal 0.760411 -0.649442 0
    outer loop
      vertex 0.809016 -0.587785 0
      vertex 0.707107 -0.707107 1
      vertex 0.707107 -0.707107 0
    endloop
  endfacet
  facet normal -0.5225 -0.852639 0
    outer loop
      vertex -0.587785 -0.809016 0
      vertex -0.45399 -0.891006 1
      vertex -0.587785 -0.809016 1
    endloop
  endfacet
  facet normal -0.5225 -0.852639 -0
    outer loop
      vertex -0.45399 -0.891006 1
      vertex -0.587785 -0.809016 0
      vertex -0.45399 -0.891006 0
    endloop
  endfacet
  facet normal -0.233447 -0.972369 0
    outer loop
      vertex -0.309016 -0.951056 0
      vertex -0.156434 -0.987688 1
      vertex -0.309016 -0.951056 1
    endloop
  endfacet
  facet normal -0.233447 -0.972369 -0
    outer loop
      vertex -0.156434 -0.987688 1
      vertex -0.309016 -0.951056 0
      vertex -0.156434 -0.987688 0
    endloop
  endfacet
  facet normal -0.760411 -0.649442 0
    outer loop
      vertex -0.707107 -0.707107 0
      vertex -0.809016 -0.587785 1
      vertex -0.809016 -0.587785 0
    endloop
  endfacet
  facet normal -0.760411 -0.649442 0
    outer loop
      vertex -0.809016 -0.587785 1
      vertex -0.707107 -0.707107 0
      vertex -0.707107 -0.707107 1
    endloop
  endfacet
  facet normal -0.92388 -0.382682 0
    outer loop
      vertex -0.891006 -0.45399 0
      vertex -0.951056 -0.309016 1
      vertex -0.951056 -0.309016 0
    endloop
  endfacet
  facet normal -0.92388 -0.382682 0
    outer loop
      vertex -0.951056 -0.309016 1
      vertex -0.891006 -0.45399 0
      vertex -0.891006 -0.45399 1
    endloop
  endfacet
  facet normal -0.996917 -0.0784615 0
    outer loop
      vertex -0.987688 -0.156434 0
      vertex -1 0 1
      vertex -1 0 0
    endloop
  endfacet
  facet normal -0.996917 -0.0784615 0
    outer loop
      vertex -1 0 1
      vertex -0.987688 -0.156434 0
      vertex -0.987688 -0.156434 1
    endloop
  endfacet
  facet normal 0.233447 -0.972369 0
    outer loop
      vertex 0.156434 -0.987688 0
      vertex 0.309016 -0.951056 1
      vertex 0.156434 -0.987688 1
    endloop
  endfacet
  facet normal 0.233447 -0.972369 0
    outer loop
      vertex 0.309016 -0.951056 1
      vertex 0.156434 -0.987688 0
      vertex 0.309016 -0.951056 0
    endloop
  endfacet
  facet normal 0.972369 -0.233447 0
    outer loop
      vertex 0.951056 -0.309016 1
      vertex 0.987688 -0.156434 0
      vertex 0.987688 -0.156434 1
    endloop
  endfacet
  facet normal 0.972369 -0.233447 0
    outer loop
      vertex 0.987688 -0.156434 0
      vertex 0.951056 -0.309016 1
      vertex 0.951056 -0.309016 0
    endloop
  endfacet
  facet normal 0.852639 -0.5225 0
    outer loop
      vertex 0.809016 -0.587785 1
      vertex 0.891006 -0.45399 0
      vertex 0.891006 -0.45399 1
    endloop
  endfacet
  facet normal 0.852639 -0.5225 0
    outer loop
      vertex 0.891006 -0.45399 0
      vertex 0.809016 -0.587785 1
      vertex 0.809016 -0.587785 0
    endloop
  endfacet
  facet normal -0.0784615 -0.996917 0
    outer loop
      vertex -0.156434 -0.987688 0
      vertex 0 -1 1
      vertex -0.156434 -0.987688 1
    endloop
  endfacet
  facet normal -0.0784615 -0.996917 -0
    outer loop
      vertex 0 -1 1
      vertex -0.156434 -0.987688 0
      vertex 0 -1 0
    endloop
  endfacet
  facet normal -0.972369 -0.233447 0
    outer loop
      vertex -0.951056 -0.309016 0
      vertex -0.987688 -0.156434 1
      vertex -0.987688 -0.156434 0
    endloop
  endfacet
  facet normal -0.972369 -0.233447 0
    outer loop
      vertex -0.987688 -0.156434 1
      vertex -0.951056 -0.309016 0
      vertex -0.951056 -0.309016 1
    endloop
  endfacet
  facet normal 0.996917 -0.0784615 0
    outer loop
      vertex 0.987688 -0.156434 1
      vertex 1 0 0
      vertex 1 0 1
    endloop
  endfacet
  facet normal 0.996917 -0.0784615 0
    outer loop
      vertex 1 0 0
      vertex 0.987688 -0.156434 1
      vertex 0.987688 -0.156434 0
    endloop
  endfacet
  facet normal 0.968148 0.250379 0
    outer loop
      vertex 0.811159 1.15846 1
      vertex 0.77187 1.31038 0
      vertex 0.77187 1.31038 1
    endloop
  endfacet
  facet normal 0.968148 0.250379 0
    outer loop
      vertex 0.77187 1.31038 0
      vertex 0.811159 1.15846 1
      vertex 0.811159 1.15846 0
    endloop
  endfacet
  facet normal 0.50756 0.861616 -0
    outer loop
      vertex 0.399928 1.80396 0
      vertex 0.312775 1.8553 1
      vertex 0.399928 1.80396 1
    endloop
  endfacet
  facet normal 0.50756 0.861616 0
    outer loop
      vertex 0.312775 1.8553 1
      vertex 0.399928 1.80396 0
      vertex 0.312775 1.8553 0
    endloop
  endfacet
  facet normal 0.930417 -0.366503 0
    outer loop
      vertex 0.762765 0.641939 1
      vertex 0.782656 0.692435 0
      vertex 0.782656 0.692435 1
    endloop
  endfacet
  facet normal 0.930417 -0.366503 0
    outer loop
      vertex 0.782656 0.692435 0
      vertex 0.762765 0.641939 1
      vertex 0.762765 0.641939 0
    endloop
  endfacet
  facet normal 0.748968 0.662607 0
    outer loop
      vertex 0.624987 1.58662 1
      vertex 0.521009 1.70415 0
      vertex 0.521009 1.70415 1
    endloop
  endfacet
  facet normal 0.748968 0.662607 0
    outer loop
      vertex 0.521009 1.70415 0
      vertex 0.624987 1.58662 1
      vertex 0.624987 1.58662 0
    endloop
  endfacet
  facet normal 0.917057 0.398757 0
    outer loop
      vertex 0.77187 1.31038 1
      vertex 0.709299 1.45428 0
      vertex 0.709299 1.45428 1
    endloop
  endfacet
  facet normal 0.917057 0.398757 0
    outer loop
      vertex 0.709299 1.45428 0
      vertex 0.77187 1.31038 1
      vertex 0.77187 1.31038 0
    endloop
  endfacet
  facet normal 0.636073 0.771629 -0
    outer loop
      vertex 0.521009 1.70415 0
      vertex 0.399928 1.80396 1
      vertex 0.521009 1.70415 1
    endloop
  endfacet
  facet normal 0.636073 0.771629 0
    outer loop
      vertex 0.399928 1.80396 1
      vertex 0.521009 1.70415 0
      vertex 0.399928 1.80396 0
    endloop
  endfacet
  facet normal -0.998126 0.0611896 0
    outer loop
      vertex -1.1735 0.967355 0
      vertex -1.17092 1.00944 1
      vertex -1.17092 1.00944 0
    endloop
  endfacet
  facet normal -0.998126 0.0611896 0
    outer loop
      vertex -1.17092 1.00944 1
      vertex -1.1735 0.967355 0
      vertex -1.1735 0.967355 1
    endloop
  endfacet
  facet normal -0.995396 -0.095846 0
    outer loop
      vertex -1.15846 0.811159 0
      vertex -1.1735 0.967355 1
      vertex -1.1735 0.967355 0
    endloop
  endfacet
  facet normal -0.995396 -0.095846 0
    outer loop
      vertex -1.1735 0.967355 1
      vertex -1.15846 0.811159 0
      vertex -1.15846 0.811159 1
    endloop
  endfacet
  facet normal -0.917039 -0.398798 0
    outer loop
      vertex -1.05659 0.515336 0
      vertex -1.11917 0.659239 1
      vertex -1.11917 0.659239 0
    endloop
  endfacet
  facet normal -0.917039 -0.398798 0
    outer loop
      vertex -1.11917 0.659239 1
      vertex -1.05659 0.515336 0
      vertex -1.05659 0.515336 1
    endloop
  endfacet
  facet normal 0.843385 0.537309 0
    outer loop
      vertex 0.709299 1.45428 1
      vertex 0.624987 1.58662 0
      vertex 0.624987 1.58662 1
    endloop
  endfacet
  facet normal 0.843385 0.537309 0
    outer loop
      vertex 0.624987 1.58662 0
      vertex 0.709299 1.45428 1
      vertex 0.709299 1.45428 0
    endloop
  endfacet
  facet normal -0.968146 -0.250385 0
    outer loop
      vertex -1.11917 0.659239 0
      vertex -1.15846 0.811159 1
      vertex -1.15846 0.811159 0
    endloop
  endfacet
  facet normal -0.968146 -0.250385 0
    outer loop
      vertex -1.15846 0.811159 1
      vertex -1.11917 0.659239 0
      vertex -1.11917 0.659239 1
    endloop
  endfacet
  facet normal 0.995396 0.0958435 0
    outer loop
      vertex 0.826199 1.00226 1
      vertex 0.811159 1.15846 0
      vertex 0.811159 1.15846 1
    endloop
  endfacet
  facet normal 0.995396 0.0958435 0
    outer loop
      vertex 0.811159 1.15846 0
      vertex 0.826199 1.00226 1
      vertex 0.826199 1.00226 0
    endloop
  endfacet
  facet normal 0.976295 -0.216443 0
    outer loop
      vertex 0.782656 0.692435 1
      vertex 0.81662 0.845634 0
      vertex 0.81662 0.845634 1
    endloop
  endfacet
  facet normal 0.976295 -0.216443 0
    outer loop
      vertex 0.81662 0.845634 0
      vertex 0.782656 0.692435 1
      vertex 0.782656 0.692435 0
    endloop
  endfacet
  facet normal 0.998135 -0.0610444 0
    outer loop
      vertex 0.81662 0.845634 1
      vertex 0.826199 1.00226 0
      vertex 0.826199 1.00226 1
    endloop
  endfacet
  facet normal 0.998135 -0.0610444 0
    outer loop
      vertex 0.826199 1.00226 0
      vertex 0.81662 0.845634 1
      vertex 0.81662 0.845634 0
    endloop
  endfacet
  facet normal -0.748964 -0.662611 0
    outer loop
      vertex -0.936955 0.34306 0
      vertex -0.972283 0.382992 1
      vertex -0.972283 0.382992 0
    endloop
  endfacet
  facet normal -0.748964 -0.662611 0
    outer loop
      vertex -0.972283 0.382992 1
      vertex -0.936955 0.34306 0
      vertex -0.936955 0.34306 1
    endloop
  endfacet
  facet normal -0.843407 -0.537275 0
    outer loop
      vertex -0.972283 0.382992 0
      vertex -1.05659 0.515336 1
      vertex -1.05659 0.515336 0
    endloop
  endfacet
  facet normal -0.843407 -0.537275 0
    outer loop
      vertex -1.05659 0.515336 1
      vertex -0.972283 0.382992 0
      vertex -0.972283 0.382992 1
    endloop
  endfacet
  facet normal 0.622503 0.782617 -0
    outer loop
      vertex -0.00204182 2.61074 0
      vertex -0.124846 2.70842 1
      vertex -0.00204182 2.61074 1
    endloop
  endfacet
  facet normal 0.622503 0.782617 0
    outer loop
      vertex -0.124846 2.70842 1
      vertex -0.00204182 2.61074 0
      vertex -0.124846 2.70842 0
    endloop
  endfacet
  facet normal -0.999049 0.0435921 0
    outer loop
      vertex -1.68343 1.84449 0
      vertex -1.67659 2.00125 1
      vertex -1.67659 2.00125 0
    endloop
  endfacet
  facet normal -0.999049 0.0435921 0
    outer loop
      vertex -1.67659 2.00125 1
      vertex -1.68343 1.84449 0
      vertex -1.68343 1.84449 1
    endloop
  endfacet
  facet normal 0.492422 0.870357 -0
    outer loop
      vertex -0.124846 2.70842 0
      vertex -0.261421 2.78569 1
      vertex -0.124846 2.70842 1
    endloop
  endfacet
  facet normal 0.492422 0.870357 0
    outer loop
      vertex -0.261421 2.78569 1
      vertex -0.124846 2.70842 0
      vertex -0.261421 2.78569 0
    endloop
  endfacet
  facet normal -0.113244 0.993567 0
    outer loop
      vertex -0.71894 2.87878 0
      vertex -0.874848 2.86101 1
      vertex -0.71894 2.87878 1
    endloop
  endfacet
  facet normal -0.113244 0.993567 0
    outer loop
      vertex -0.874848 2.86101 1
      vertex -0.71894 2.87878 0
      vertex -0.874848 2.86101 0
    endloop
  endfacet
  facet normal 0.0436529 0.999047 -0
    outer loop
      vertex -0.56217 2.87193 0
      vertex -0.71894 2.87878 1
      vertex -0.56217 2.87193 1
    endloop
  endfacet
  facet normal 0.0436529 0.999047 0
    outer loop
      vertex -0.71894 2.87878 1
      vertex -0.56217 2.87193 0
      vertex -0.71894 2.87878 0
    endloop
  endfacet
  facet normal -0.675624 0.737247 0
    outer loop
      vertex -1.2997 2.6674 0
      vertex -1.41539 2.56138 1
      vertex -1.2997 2.6674 1
    endloop
  endfacet
  facet normal -0.675624 0.737247 0
    outer loop
      vertex -1.41539 2.56138 1
      vertex -1.2997 2.6674 0
      vertex -1.41539 2.56138 0
    endloop
  endfacet
  facet normal -0.979918 0.199399 0
    outer loop
      vertex -1.67659 2.00125 0
      vertex -1.6453 2.15502 1
      vertex -1.6453 2.15502 0
    endloop
  endfacet
  facet normal -0.979918 0.199399 0
    outer loop
      vertex -1.6453 2.15502 1
      vertex -1.67659 2.00125 0
      vertex -1.67659 2.00125 1
    endloop
  endfacet
  facet normal 0.350241 0.93666 -0
    outer loop
      vertex -0.261421 2.78569 0
      vertex -0.408402 2.84065 1
      vertex -0.261421 2.78569 1
    endloop
  endfacet
  facet normal 0.350241 0.93666 0
    outer loop
      vertex -0.408402 2.84065 1
      vertex -0.261421 2.78569 0
      vertex -0.408402 2.84065 0
    endloop
  endfacet
  facet normal -0.26721 0.963638 0
    outer loop
      vertex -0.874848 2.86101 0
      vertex -1.02606 2.81908 1
      vertex -0.874848 2.86101 1
    endloop
  endfacet
  facet normal -0.26721 0.963638 0
    outer loop
      vertex -1.02606 2.81908 1
      vertex -0.874848 2.86101 0
      vertex -1.02606 2.81908 0
    endloop
  endfacet
  facet normal 0.199341 0.97993 -0
    outer loop
      vertex -0.408402 2.84065 0
      vertex -0.56217 2.87193 1
      vertex -0.408402 2.84065 1
    endloop
  endfacet
  facet normal 0.199341 0.97993 0
    outer loop
      vertex -0.56217 2.87193 1
      vertex -0.408402 2.84065 0
      vertex -0.56217 2.87193 0
    endloop
  endfacet
  facet normal -0.993575 -0.11318 0
    outer loop
      vertex -1.66567 1.68858 0
      vertex -1.68343 1.84449 1
      vertex -1.68343 1.84449 0
    endloop
  endfacet
  facet normal -0.993575 -0.11318 0
    outer loop
      vertex -1.68343 1.84449 1
      vertex -1.66567 1.68858 0
      vertex -1.66567 1.68858 1
    endloop
  endfacet
  facet normal -0.93668 0.350187 0
    outer loop
      vertex -1.6453 2.15502 0
      vertex -1.59035 2.302 1
      vertex -1.59035 2.302 0
    endloop
  endfacet
  facet normal -0.93668 0.350187 0
    outer loop
      vertex -1.59035 2.302 1
      vertex -1.6453 2.15502 0
      vertex -1.6453 2.15502 1
    endloop
  endfacet
  facet normal -0.782576 0.622555 0
    outer loop
      vertex -1.51308 2.43858 0
      vertex -1.41539 2.56138 1
      vertex -1.41539 2.56138 0
    endloop
  endfacet
  facet normal -0.782576 0.622555 0
    outer loop
      vertex -1.41539 2.56138 1
      vertex -1.51308 2.43858 0
      vertex -1.51308 2.43858 1
    endloop
  endfacet
  facet normal -0.551903 0.833908 0
    outer loop
      vertex -1.16885 2.754 0
      vertex -1.2997 2.6674 1
      vertex -1.16885 2.754 1
    endloop
  endfacet
  facet normal -0.551903 0.833908 0
    outer loop
      vertex -1.2997 2.6674 1
      vertex -1.16885 2.754 0
      vertex -1.2997 2.6674 0
    endloop
  endfacet
  facet normal -0.870365 0.492408 0
    outer loop
      vertex -1.59035 2.302 0
      vertex -1.51308 2.43858 1
      vertex -1.51308 2.43858 0
    endloop
  endfacet
  facet normal -0.870365 0.492408 0
    outer loop
      vertex -1.51308 2.43858 1
      vertex -1.59035 2.302 0
      vertex -1.59035 2.302 1
    endloop
  endfacet
  facet normal 0.993571 0.113211 0
    outer loop
      vertex 0.315351 1.91428 1
      vertex 0.297586 2.07019 0
      vertex 0.297586 2.07019 1
    endloop
  endfacet
  facet normal 0.993571 0.113211 0
    outer loop
      vertex 0.297586 2.07019 0
      vertex 0.315351 1.91428 1
      vertex 0.315351 1.91428 0
    endloop
  endfacet
  facet normal -0.737278 -0.675589 0
    outer loop
      vertex -1.36604 1.14803 0
      vertex -1.47205 1.26372 1
      vertex -1.47205 1.26372 0
    endloop
  endfacet
  facet normal -0.737278 -0.675589 0
    outer loop
      vertex -1.47205 1.26372 1
      vertex -1.36604 1.14803 0
      vertex -1.36604 1.14803 1
    endloop
  endfacet
  facet normal 0.999048 -0.0436342 0
    outer loop
      vertex 0.312775 1.8553 1
      vertex 0.315351 1.91428 0
      vertex 0.315351 1.91428 1
    endloop
  endfacet
  facet normal 0.999048 -0.0436342 0
    outer loop
      vertex 0.315351 1.91428 0
      vertex 0.312775 1.8553 1
      vertex 0.312775 1.8553 0
    endloop
  endfacet
  facet normal 0.833901 0.551913 0
    outer loop
      vertex 0.190579 2.36419 1
      vertex 0.10397 2.49505 0
      vertex 0.10397 2.49505 1
    endloop
  endfacet
  facet normal 0.833901 0.551913 0
    outer loop
      vertex 0.10397 2.49505 0
      vertex 0.190579 2.36419 1
      vertex 0.190579 2.36419 0
    endloop
  endfacet
  facet normal 0.737273 0.675595 0
    outer loop
      vertex 0.10397 2.49505 1
      vertex -0.00204182 2.61074 0
      vertex -0.00204182 2.61074 1
    endloop
  endfacet
  facet normal 0.737273 0.675595 0
    outer loop
      vertex -0.00204182 2.61074 0
      vertex 0.10397 2.49505 1
      vertex 0.10397 2.49505 0
    endloop
  endfacet
  facet normal -0.963626 -0.267256 0
    outer loop
      vertex -1.62373 1.53736 0
      vertex -1.66567 1.68858 1
      vertex -1.66567 1.68858 0
    endloop
  endfacet
  facet normal -0.963626 -0.267256 0
    outer loop
      vertex -1.66567 1.68858 1
      vertex -1.62373 1.53736 0
      vertex -1.62373 1.53736 1
    endloop
  endfacet
  facet normal -0.414729 0.909945 0
    outer loop
      vertex -1.02606 2.81908 0
      vertex -1.16885 2.754 1
      vertex -1.02606 2.81908 1
    endloop
  endfacet
  facet normal -0.414729 0.909945 0
    outer loop
      vertex -1.16885 2.754 1
      vertex -1.02606 2.81908 0
      vertex -1.16885 2.754 0
    endloop
  endfacet
  facet normal 0.909953 0.414711 0
    outer loop
      vertex 0.255651 2.22141 1
      vertex 0.190579 2.36419 0
      vertex 0.190579 2.36419 1
    endloop
  endfacet
  facet normal 0.909953 0.414711 0
    outer loop
      vertex 0.190579 2.36419 0
      vertex 0.255651 2.22141 1
      vertex 0.255651 2.22141 0
    endloop
  endfacet
  facet normal 0.963634 0.267226 0
    outer loop
      vertex 0.297586 2.07019 1
      vertex 0.255651 2.22141 0
      vertex 0.255651 2.22141 1
    endloop
  endfacet
  facet normal 0.963634 0.267226 0
    outer loop
      vertex 0.255651 2.22141 0
      vertex 0.297586 2.07019 1
      vertex 0.297586 2.07019 0
    endloop
  endfacet
  facet normal -0.909958 -0.414701 0
    outer loop
      vertex -1.55866 1.39458 0
      vertex -1.62373 1.53736 1
      vertex -1.62373 1.53736 0
    endloop
  endfacet
  facet normal -0.909958 -0.414701 0
    outer loop
      vertex -1.62373 1.53736 1
      vertex -1.55866 1.39458 0
      vertex -1.55866 1.39458 1
    endloop
  endfacet
  facet normal -0.622485 -0.782631 0
    outer loop
      vertex -1.36604 1.14803 0
      vertex -1.24323 1.05035 1
      vertex -1.36604 1.14803 1
    endloop
  endfacet
  facet normal -0.622485 -0.782631 -0
    outer loop
      vertex -1.24323 1.05035 1
      vertex -1.36604 1.14803 0
      vertex -1.24323 1.05035 0
    endloop
  endfacet
  facet normal -0.833899 -0.551918 0
    outer loop
      vertex -1.47205 1.26372 0
      vertex -1.55866 1.39458 1
      vertex -1.55866 1.39458 0
    endloop
  endfacet
  facet normal -0.833899 -0.551918 0
    outer loop
      vertex -1.55866 1.39458 1
      vertex -1.47205 1.26372 0
      vertex -1.47205 1.26372 1
    endloop
  endfacet
  facet normal -0.492414 -0.870361 0
    outer loop
      vertex -1.24323 1.05035 0
      vertex -1.17092 1.00944 1
      vertex -1.24323 1.05035 1
    endloop
  endfacet
  facet normal -0.492414 -0.870361 -0
    outer loop
      vertex -1.17092 1.00944 1
      vertex -1.24323 1.05035 0
      vertex -1.17092 1.00944 0
    endloop
  endfacet
endsolid OpenSCAD_Model
